<svg width="21" height="22" viewBox="0 0 21 22" fill="none" xmlns="http://www.w3.org/2000/svg">
<path d="M1.5 8.11V13.88C1.5 16 1.5 16 3.5 17.35L9 20.53C9.83 21.01 11.18 21.01 12 20.53L17.5 17.35C19.5 16 19.5 16 19.5 13.89V8.11C19.5 6 19.5 6 17.5 4.65L12 1.47C11.18 0.990001 9.83 0.990001 9 1.47L3.5 4.65C1.5 6 1.5 6 1.5 8.11Z" stroke="#131117" stroke-width="1.5" stroke-linecap="round" stroke-linejoin="round"/>
<path d="M10.5 14C12.1569 14 13.5 12.6569 13.5 11C13.5 9.34315 12.1569 8 10.5 8C8.84315 8 7.5 9.34315 7.5 11C7.5 12.6569 8.84315 14 10.5 14Z" stroke="#131117" stroke-width="1.5" stroke-linecap="round" stroke-linejoin="round"/>
</svg>
